# xmcd
#
# Track frame offsets: 
#        182
#        11302
#        21565
#        34815
#        43510
#        54530
#        63662
#        72837
#        106140
#        118217
#        128417
#        138715
#        153320
#        162037
#        178142
#        187455
#
# Disc length: 2625 seconds
#
# Revision: 2
# Processed by: cddbd v1.5.1PL2 Copyright (c) Steve Scherf et al.
# Submitted via: ExactAudioCopy v0.95b4
#
DISCID=e40a3f10
DTITLE=Loretta Lynn - Legends - Loretta Lynn
DYEAR=1994
DGENRE=Country
TTITLE0=Hey Loretta
TTITLE1=You're Looking At The Country
TTITLE2=Let Your Love Flow
TTITLE3=We've Come A Long Way Baby
TTITLE4=Spring Fever
TTITLE5=Your Squaw Is On The Warpath
TTITLE6=First City
TTITLE7=Medley: I Fall To Pieces, Walking After Midnight, Crasy, Back 
TTITLE7=In Baby's Arms
TTITLE8=Me And Bobby McGee
TTITLE9=Somebody Somewhere
TTITLE10=Out Of My Head And Back In My Bed
TTITLE11=Coal Miner's Daughter
TTITLE12=They Don't Make 'Em Like Daddy Anymore
TTITLE13=Medley: One's On The Way, The Pill
TTITLE14=Y'All Come
TTITLE15=You Ain't Woman Enough
EXTD=
EXTT0=
EXTT1=
EXTT2=
EXTT3=
EXTT4=
EXTT5=
EXTT6=
EXTT7=
EXTT8=
EXTT9=
EXTT10=
EXTT11=
EXTT12=
EXTT13=
EXTT14=
EXTT15=
PLAYORDER=
